<?xml version="1.0" standalone="no"?>
<!DOCTYPE svg PUBLIC "-//W3C//DTD SVG 20010904//EN"
 "http://www.w3.org/TR/2001/REC-SVG-20010904/DTD/svg10.dtd">
<svg version="1.0" xmlns="http://www.w3.org/2000/svg"
 width="1000.000000pt" height="1000.000000pt" viewBox="0 0 1000.000000 1000.000000"
 preserveAspectRatio="xMidYMid meet">
<metadata>
Created by potrace 1.11, written by Peter Selinger 2001-2013
</metadata>
<g transform="translate(0.000000,1000.000000) scale(0.100000,-0.100000)"
fill="#000000" stroke="none">
<path d="M4738 9995 c-1 -1 -52 -6 -113 -9 -60 -4 -119 -9 -130 -11 -11 -2
-47 -7 -80 -10 -33 -3 -71 -7 -84 -10 -14 -2 -45 -7 -70 -10 -25 -3 -57 -7
-71 -10 -14 -3 -50 -9 -80 -15 -93 -16 -103 -18 -180 -35 -41 -10 -91 -21
-110 -25 -107 -22 -408 -115 -570 -175 -485 -181 -1039 -499 -1404 -805 -262
-220 -472 -425 -636 -620 -25 -29 -49 -58 -55 -64 -5 -6 -35 -42 -66 -81 -361
-454 -646 -978 -829 -1525 -51 -152 -119 -394 -134 -470 -2 -14 -14 -68 -25
-120 -11 -52 -25 -124 -31 -160 -5 -36 -12 -76 -14 -90 -6 -35 -15 -106 -22
-170 -3 -30 -7 -66 -10 -80 -25 -160 -25 -802 1 -1005 3 -22 12 -96 20 -165 9
-69 22 -156 30 -195 8 -38 17 -86 20 -105 10 -62 53 -242 80 -340 14 -52 28
-105 30 -116 11 -49 111 -329 168 -469 130 -320 384 -782 549 -1000 5 -5 40
-53 79 -105 157 -207 300 -371 489 -558 l105 -104 111 7 c61 3 122 7 135 10
13 2 56 6 94 10 39 4 77 8 85 10 8 1 46 6 84 10 38 4 79 8 90 10 12 2 44 6 71
10 28 3 77 10 110 15 33 5 78 11 100 15 37 5 300 48 370 60 17 3 131 26 255
51 124 25 235 48 247 50 20 4 541 136 588 150 11 3 25 6 30 8 277 74 922 299
1120 391 17 7 53 23 80 35 242 104 599 287 800 410 39 23 86 51 105 62 33 20
246 163 343 233 54 38 208 158 229 177 7 7 38 33 68 58 115 95 340 315 464
454 596 670 994 1532 1121 2426 9 63 18 126 20 140 3 14 7 56 11 95 3 38 7 81
10 95 24 156 24 916 0 1070 -2 14 -7 61 -11 105 -4 44 -8 87 -10 95 -1 8 -5
44 -10 80 -4 36 -9 72 -10 80 -1 8 -6 40 -10 70 -4 30 -9 64 -11 75 -2 11 -11
58 -19 105 -24 136 -24 138 -60 300 -19 85 -39 170 -44 188 -5 17 -8 32 -5 32
3 0 0 8 -5 19 -6 10 -13 32 -16 50 -3 17 -28 106 -56 199 -29 92 -53 174 -56
182 -5 18 -175 140 -330 239 -357 226 -738 405 -1143 538 -139 45 -392 114
-479 129 -12 3 -51 11 -85 19 -33 7 -122 23 -196 34 -144 22 -173 25 -290 37
-41 3 -88 9 -105 11 -36 5 -642 13 -647 8z m1712 -3290 c327 -91 435 -493 198
-738 -62 -63 -135 -103 -222 -121 -48 -10 -493 -12 -2091 -11 -1918 1 -2033 2
-2080 19 -72 26 -131 62 -178 110 -40 40 -48 51 -86 120 -41 74 -55 187 -36
281 43 202 199 337 410 354 44 3 967 5 2050 5 1862 -1 1974 -2 2035 -19z m-26
-1437 c22 -5 68 -22 101 -37 270 -128 336 -482 131 -699 -58 -62 -108 -93
-191 -122 -57 -20 -84 -20 -2100 -20 -2264 0 -2089 -5 -2206 66 -98 59 -169
154 -199 263 -66 248 98 505 355 554 45 8 4070 4 4109 -5z"/>
<path d="M8974 8003 c4 -26 7 -54 22 -208 20 -212 29 -423 28 -740 0 -252 -7
-483 -19 -620 -1 -22 -6 -74 -9 -115 -14 -158 -15 -176 -21 -220 -3 -25 -8
-60 -10 -78 -5 -43 -15 -114 -30 -217 -1 -11 -6 -42 -10 -70 -3 -27 -8 -57
-10 -65 -3 -8 -7 -32 -11 -54 -3 -21 -8 -48 -10 -60 -3 -11 -9 -43 -14 -71
-16 -85 -21 -109 -25 -125 -3 -8 -7 -33 -11 -55 -3 -22 -8 -43 -11 -48 -2 -4
-6 -18 -9 -32 -2 -13 -20 -86 -40 -162 -19 -76 -37 -147 -39 -158 -10 -43
-115 -366 -150 -460 -21 -55 -44 -118 -52 -140 -127 -349 -394 -855 -632
-1197 -121 -173 -363 -481 -503 -639 -31 -35 -65 -74 -76 -87 -203 -234 -596
-617 -906 -882 -16 -14 -34 -29 -40 -35 -6 -5 -45 -37 -86 -70 -41 -33 -84
-68 -95 -78 -36 -33 -266 -210 -420 -322 -133 -97 -585 -403 -661 -447 -16 -9
-56 -33 -89 -53 -181 -113 -575 -330 -732 -404 -29 -14 -53 -28 -53 -33 0 -4
3 -7 8 -6 4 1 52 -4 107 -11 55 -7 114 -14 130 -16 212 -26 858 -26 1005 -1
14 3 50 7 80 10 249 23 652 109 930 198 442 141 872 349 1265 610 l140 93 270
-102 c621 -233 761 -286 785 -293 14 -5 72 -27 130 -49 58 -23 108 -41 112
-41 8 0 -18 51 -252 495 -26 50 -73 140 -105 200 -31 61 -93 179 -137 263 -44
84 -78 156 -76 161 2 5 26 33 53 63 237 258 479 592 659 908 74 129 235 468
291 610 89 225 194 558 221 700 3 14 11 50 19 80 8 30 17 71 20 90 3 19 10 58
15 85 5 28 12 68 16 90 3 22 9 67 14 100 5 33 12 85 15 115 4 30 8 69 10 85
27 197 27 778 0 1015 -3 19 -7 56 -10 83 -8 76 -31 232 -41 282 -3 11 -7 36
-10 55 -22 131 -88 393 -151 590 -129 409 -369 911 -597 1245 -67 99 -187 265
-192 265 -2 0 -2 -12 0 -27z"/>
</g>
</svg>
