<?xml version="1.0" encoding="utf-8"?>
<!-- Generator: Adobe Illustrator 16.0.0, SVG Export Plug-In . SVG Version: 6.00 Build 0)  -->
<!DOCTYPE svg PUBLIC "-//W3C//DTD SVG 1.1//EN" "http://www.w3.org/Graphics/SVG/1.1/DTD/svg11.dtd">
<svg version="1.1" id="Layer_1" xmlns="http://www.w3.org/2000/svg" xmlns:xlink="http://www.w3.org/1999/xlink" x="0px" y="0px"
	 width="30px" height="30px" viewBox="0 0 30 30" enable-background="new 0 0 30 30" xml:space="preserve">
<g id="Layer_1_1_">
</g>
<g id="Layer_2_2_">
	<g id="Layer_1_3_">
		<g id="Layer_1_2_">
			<g enable-background="new    ">
				<g>
					<path d="M20.9,7.111c3.15,0,4.887,1.688,4.887,4.753c-0.001,2.327-2.143,4.495-2.602,4.936l-7.873,7.581l-7.886-7.607
						L7.4,16.747l-0.02-0.019c-0.707-0.636-2.541-2.747-2.541-4.864c0-3.065,1.736-4.754,4.888-4.754
						c1.848,0,3.785,1.716,4.532,2.454l1.054,1.04l1.054-1.04C17.113,8.827,19.055,7.111,20.9,7.111 M20.9,5.611
						c-2.34,0-4.531,1.844-5.587,2.886c-1.055-1.042-3.247-2.886-5.586-2.886c-3.996,0-6.388,2.338-6.388,6.254
						c0,3.208,2.94,5.894,3.047,5.988l8.339,8.045c0.16,0.16,0.588,0.57,0.588,0.57s0.427-0.41,0.587-0.57l8.326-8.019
						c0.121-0.121,3.06-2.807,3.061-6.015C27.287,7.95,24.895,5.611,20.9,5.611L20.9,5.611z"/>
				</g>
			</g>
		</g>
	</g>
</g>
</svg>
