<svg xmlns="http://www.w3.org/2000/svg" width="720" height="720" viewBox="0 0 720 720">
  <metadata><?xpacket begin="﻿" id="logo"?>
<x:xmpmeta xmlns:x="adobe:ns:meta/" x:xmptk="Adobe XMP Core 5.6-c142 79.160924, 2017/07/13-01:06:39        ">
   <rdf:RDF xmlns:rdf="http://www.w3.org/1999/02/22-rdf-syntax-ns#">
      <rdf:Description rdf:about=""/>
   </rdf:RDF>
</x:xmpmeta>





















<?xpacket end="w"?></metadata>
<defs>
    <style>
      .cls-1 {
        fill-rule: evenodd;
      }
    </style>
  </defs>
  <path class="cls-1" d="M500,480C373.919,603.693,144.292,621.974,115.091,623.822A359,359,0,0,1,0,360C0,161.178,161.178,0,360,0A358.39,358.39,0,0,1,576.516,72.38C594.276,124.682,651.193,331.67,500,480ZM456,236H172a32,32,0,0,0,0,64H456A32,32,0,0,0,456,236Zm0,104H172a32,32,0,0,0,0,64H456A32,32,0,0,0,456,340ZM564,504c101.048-137.763,87.982-313.7,81.9-362.757a359.955,359.955,0,0,1-24.222,465.966L664,688l-94.3-35.364A358.341,358.341,0,0,1,360,720a362.772,362.772,0,0,1-54.959-4.17C340.3,698.95,471.256,630.442,564,504Z"/>
</svg>
