<?xml version="1.0" encoding="utf-8"?>
<!-- Generator: Adobe Illustrator 16.0.0, SVG Export Plug-In . SVG Version: 6.00 Build 0)  -->
<!DOCTYPE svg PUBLIC "-//W3C//DTD SVG 1.1//EN" "http://www.w3.org/Graphics/SVG/1.1/DTD/svg11.dtd">
<svg version="1.1" id="Layer_1" xmlns="http://www.w3.org/2000/svg" xmlns:xlink="http://www.w3.org/1999/xlink" x="0px" y="0px"
	 width="30px" height="30px" viewBox="0 0 30 30" enable-background="new 0 0 30 30" xml:space="preserve">
<g id="Layer_1_2_">
	<g id="Layer_1_1_">
		<g enable-background="new    ">
			<path fill="#EE4873" d="M24.227,17.88L15.9,25.896c-0.16,0.16-0.587,0.571-0.587,0.571s-0.428-0.411-0.588-0.571l-8.339-8.045
				c-0.107-0.094-3.047-2.779-3.047-5.987c0-3.916,2.392-6.254,6.388-6.254c2.339,0,4.531,1.844,5.586,2.886
				C16.369,7.454,18.561,5.61,20.9,5.61c3.994,0,6.387,2.339,6.387,6.254C27.286,15.073,24.348,17.759,24.227,17.88z"/>
		</g>
	</g>
</g>
<g id="Layer_1_5_" display="none">
	<g id="Layer_1_6_" display="inline">
		<g enable-background="new    ">
			<path d="M20.9,6.798c3.15,0,4.887,1.688,4.887,4.753c-0.001,2.327-2.143,4.496-2.602,4.936l-7.873,7.58L7.428,16.46L7.4,16.436
				l-0.02-0.019c-0.707-0.636-2.541-2.747-2.541-4.865c0-3.065,1.736-4.754,4.888-4.754c1.848,0,3.785,1.716,4.532,2.454l1.054,1.04
				l1.054-1.04C17.113,8.515,19.055,6.798,20.9,6.798 M20.9,5.298c-2.34,0-4.531,1.844-5.587,2.886
				c-1.055-1.042-3.247-2.886-5.586-2.886c-3.996,0-6.388,2.338-6.388,6.254c0,3.208,2.94,5.894,3.047,5.988l8.339,8.045
				c0.16,0.16,0.374,0.24,0.588,0.24c0.214,0,0.427-0.08,0.587-0.24l8.326-8.019c0.121-0.121,3.06-2.807,3.061-6.015
				C27.287,7.638,24.895,5.298,20.9,5.298L20.9,5.298z"/>
		</g>
	</g>
</g>
</svg>
