<?xml version="1.0" encoding="utf-8"?>
<!-- Generator: Adobe Illustrator 16.0.0, SVG Export Plug-In . SVG Version: 6.00 Build 0)  -->
<!DOCTYPE svg PUBLIC "-//W3C//DTD SVG 1.1//EN" "http://www.w3.org/Graphics/SVG/1.1/DTD/svg11.dtd">
<svg version="1.1" xmlns="http://www.w3.org/2000/svg" xmlns:xlink="http://www.w3.org/1999/xlink" x="0px" y="0px" width="30px"
	 height="30px" viewBox="0 0 30 30" enable-background="new 0 0 30 30" xml:space="preserve">
<g id="Layer_1">
	<g id="Layer_1_2_">
		<g id="Layer_1_1_" display="none">
			<g display="inline" enable-background="new    ">
				<path d="M22.791,16.572c-0.215,0.232-0.501,0.34-0.805,0.34c-0.146,0-0.307-0.035-0.447-0.09
					c-0.412-0.18-0.699-0.59-0.699-1.057v-3.437h-2.863c-3.938,0-6.442,0.752-7.838,2.345c-1.45,1.664-1.879,4.35-1.325,8.467
					c0.036,0.25-0.125,0.5-0.358,0.607c-0.072,0.02-0.143,0.035-0.215,0.035c-0.179,0-0.358-0.09-0.465-0.23
					c-0.125-0.182-2.971-4.207-2.971-7.787c0-4.797,1.503-10.31,13.172-10.31h2.863V2.021c0-0.466,0.287-0.877,0.699-1.056
					c0.143-0.054,0.304-0.09,0.447-0.09c0.304,0,0.59,0.125,0.805,0.34l6.873,6.873c0.447,0.447,0.447,1.164,0,1.611L22.791,16.572z
					"/>
			</g>
		</g>
		<g id="Layer_3" display="none">
		</g>
		<path d="M21.691,5.99l4.129,4.129l-4.129,4.128v-1.362v-1.5h-1.5h-2.307c-3.64,0-6.003,0.762-7.44,2.402
			c-0.746,0.856-1.23,1.928-1.461,3.268c-0.125-0.482-0.2-0.957-0.2-1.404c0-2.375,0-6.797,9.103-6.797h2.305h1.5v-1.5V5.99
			 M21.111,3.665c-0.114,0-0.244,0.029-0.358,0.072c-0.332,0.144-0.563,0.475-0.563,0.85v2.766h-2.305
			c-9.392,0-10.602,4.438-10.602,8.298c0,2.881,2.29,6.123,2.391,6.268c0.086,0.113,0.23,0.188,0.375,0.188
			c0.058,0,0.115-0.016,0.173-0.029c0.187-0.086,0.317-0.285,0.288-0.486c-0.446-3.314-0.101-5.477,1.066-6.814
			c1.124-1.283,3.141-1.888,6.309-1.888h2.305v2.767c0,0.375,0.23,0.707,0.563,0.85c0.114,0.043,0.244,0.072,0.358,0.072
			c0.246,0,0.477-0.086,0.647-0.271l5.531-5.532c0.358-0.36,0.358-0.937,0-1.297l-5.53-5.535
			C21.588,3.766,21.357,3.665,21.111,3.665L21.111,3.665z"/>
		<path d="M23.877,21.643c0,2.291-1.857,4.148-4.146,4.148H7.745c-2.291,0-4.149-1.857-4.149-4.148V9.657
			c0-2.291,1.858-4.148,4.149-4.148h3.673c0.245,0,0.461,0.202,0.461,0.46c0,0.231-0.158,0.418-0.375,0.461
			c-0.72,0.246-1.368,0.533-1.916,0.865C9.516,7.322,9.443,7.352,9.357,7.352H7.745c-1.268,0-2.305,1.038-2.305,2.305v11.986
			c0,1.268,1.037,2.305,2.305,2.305H19.73c1.267,0,2.303-1.037,2.303-2.305v-3.082c0-0.174,0.104-0.332,0.261-0.418
			c0.287-0.129,0.547-0.316,0.776-0.533c0.131-0.129,0.332-0.188,0.506-0.115c0.173,0.072,0.301,0.23,0.301,0.418V21.643z"/>
	</g>
	<g id="Layer_2" display="none">
		<g id="Layer_1_3_" display="inline">
			<g enable-background="new    ">
				<path fill="#238DC4" d="M22.791,17.654c-0.215,0.232-0.501,0.342-0.805,0.342c-0.146,0-0.307-0.037-0.447-0.092
					c-0.412-0.178-0.699-0.59-0.699-1.055v-3.438h-2.863c-3.938,0-6.442,0.752-7.838,2.346c-1.45,1.664-1.879,4.35-1.325,8.465
					c0.036,0.252-0.125,0.502-0.358,0.609c-0.072,0.018-0.143,0.035-0.215,0.035c-0.179,0-0.358-0.092-0.465-0.232
					c-0.125-0.18-2.971-4.205-2.971-7.785c0-4.797,1.503-10.311,13.172-10.311h2.863V3.103c0-0.466,0.287-0.877,0.699-1.056
					c0.143-0.054,0.304-0.09,0.447-0.09c0.304,0,0.59,0.125,0.805,0.34l6.873,6.873c0.447,0.447,0.447,1.164,0,1.611L22.791,17.654z
					"/>
			</g>
		</g>
		<g id="Layer_3_1_" display="inline">
		</g>
		<g display="inline">
			<path fill="#238DC4" d="M21.762,17.381c-0.174,0.188-0.404,0.271-0.648,0.271c-0.114,0-0.243-0.027-0.358-0.07
				c-0.332-0.145-0.563-0.477-0.563-0.852v-2.767h-2.305c-3.169,0-5.187,0.604-6.31,1.888c-1.167,1.338-1.512,3.5-1.066,6.813
				c0.029,0.201-0.101,0.402-0.288,0.488c-0.058,0.016-0.115,0.029-0.173,0.029c-0.145,0-0.288-0.072-0.375-0.186
				c-0.101-0.146-2.391-3.389-2.391-6.27c0-3.86,1.21-8.297,10.603-8.297h2.305v-2.76c0-0.375,0.229-0.706,0.563-0.85
				c0.115-0.043,0.244-0.072,0.358-0.072c0.244,0,0.477,0.101,0.648,0.273l5.53,5.532c0.358,0.36,0.358,0.937,0,1.297L21.762,17.381
				z"/>
		</g>
		<path display="inline" fill="#238DC4" d="M23.877,22.725c0,2.291-1.857,4.148-4.146,4.148H7.745c-2.291,0-4.149-1.857-4.149-4.148
			V10.739c0-2.291,1.858-4.148,4.149-4.148h3.673c0.245,0,0.461,0.202,0.461,0.46c0,0.231-0.158,0.418-0.375,0.461
			c-0.72,0.246-1.368,0.533-1.916,0.865C9.516,8.405,9.443,8.434,9.357,8.434H7.745c-1.268,0-2.305,1.038-2.305,2.305v11.985
			c0,1.268,1.037,2.305,2.305,2.305H19.73c1.267,0,2.303-1.037,2.303-2.305v-3.082c0-0.174,0.104-0.332,0.261-0.418
			c0.287-0.129,0.547-0.316,0.776-0.533c0.131-0.129,0.332-0.188,0.506-0.115c0.173,0.072,0.301,0.23,0.301,0.418V22.725z"/>
	</g>
</g>
<g id="Layer_2_1_" display="none" opacity="0.6">
	<g display="inline">
		<path fill="#238DC4" d="M21.762,16.32c-0.174,0.188-0.404,0.271-0.648,0.271c-0.114,0-0.243-0.027-0.358-0.07
			c-0.332-0.145-0.563-0.477-0.563-0.852v-2.765h-2.305c-3.169,0-5.187,0.604-6.31,1.886c-1.167,1.34-1.512,3.5-1.066,6.815
			c0.029,0.199-0.101,0.4-0.288,0.486c-0.058,0.018-0.115,0.029-0.173,0.029c-0.145,0-0.288-0.072-0.375-0.186
			c-0.101-0.146-2.391-3.389-2.391-6.27c0-3.859,1.21-8.296,10.603-8.296h2.305V4.609c0-0.375,0.229-0.706,0.563-0.85
			c0.115-0.043,0.244-0.072,0.358-0.072c0.244,0,0.477,0.101,0.648,0.273l5.53,5.532c0.358,0.36,0.358,0.937,0,1.297L21.762,16.32z"
			/>
	</g>
	<path display="inline" fill="#238DC4" d="M23.877,21.664c0,2.291-1.857,4.148-4.146,4.148H7.745c-2.291,0-4.149-1.857-4.149-4.148
		V9.679c0-2.291,1.858-4.148,4.149-4.148h3.673c0.245,0,0.461,0.202,0.461,0.46c0,0.231-0.158,0.418-0.375,0.461
		c-0.72,0.246-1.368,0.533-1.916,0.865C9.516,7.345,9.443,7.374,9.357,7.374H7.745c-1.268,0-2.305,1.038-2.305,2.305v11.985
		c0,1.268,1.037,2.305,2.305,2.305H19.73c1.267,0,2.303-1.037,2.303-2.305v-3.082c0-0.174,0.104-0.332,0.261-0.418
		c0.287-0.129,0.547-0.316,0.776-0.533c0.131-0.129,0.332-0.188,0.506-0.115c0.173,0.072,0.301,0.23,0.301,0.418V21.664z"/>
</g>
</svg>
